<svg width="30" height="28" viewBox="0 0 30 28" fill="none" xmlns="http://www.w3.org/2000/svg">
<path d="M29.9505 8.37092C29.5126 3.55103 26.101 0.0540972 21.8316 0.0540972C18.9872 0.0540972 16.3828 1.58476 14.9173 4.03798C13.4651 1.55303 10.9675 0.0535202 8.16866 0.0535202C3.89976 0.0535202 0.487636 3.55045 0.0503028 8.37035C0.0156854 8.58324 -0.126246 9.70369 0.305317 11.5309C0.927276 14.1665 2.3639 16.5637 4.45883 18.4619L14.9104 27.9465L25.5414 18.4625C27.6363 16.5637 29.0729 14.167 29.6949 11.5309C30.1265 9.70427 29.9845 8.58382 29.9505 8.37092ZM28.5716 11.2667C28.0038 13.6737 26.6878 15.8667 24.7694 17.6045L14.9173 26.3945L5.23426 17.6068C3.31241 15.8656 1.99695 13.6732 1.42865 11.2661C1.02017 9.53695 1.18806 8.56017 1.18864 8.55382L1.19729 8.49555C1.57231 4.2728 4.50383 1.20743 8.16866 1.20743C10.8728 1.20743 13.2534 2.86907 14.3831 5.54326L14.9144 6.80276L15.4458 5.54326C16.5576 2.91003 19.0639 1.20801 21.8321 1.20801C25.4964 1.20801 28.4285 4.27338 28.811 8.55093C28.8122 8.56017 28.98 9.53753 28.5716 11.2667Z" fill="#00A15C"/>
<path d="M28.5716 11.2667C28.0038 13.6737 26.6878 15.8667 24.7694 17.6045L14.9173 26.3945L5.23426 17.6068C3.31241 15.8656 1.99695 13.6732 1.42865 11.2661C1.02017 9.53695 1.18806 8.56017 1.18864 8.55382L1.19729 8.49555C1.57231 4.2728 4.50383 1.20743 8.16866 1.20743C10.8728 1.20743 13.2534 2.86907 14.3831 5.54326L14.9144 6.80276L15.4458 5.54326C16.5576 2.91003 19.0639 1.20801 21.8321 1.20801C25.4964 1.20801 28.4285 4.27338 28.811 8.55093C28.8122 8.56017 28.98 9.53753 28.5716 11.2667Z"/>
</svg>
